<mxfile host="app.diagrams.net" modified="2023-10-27T23:01:26.363Z" agent="Mozilla/5.0 (Windows NT 10.0; Win64; x64) AppleWebKit/537.36 (KHTML, like Gecko) Chrome/118.0.0.0 Safari/537.36" etag="BDa9nuN49KbU9VhOlcPW" version="22.0.8" type="device">
  <diagram name="Page-1" id="p8h4VyCnPC1Np4n4F_tZ">
    <mxGraphModel dx="1259" dy="702" grid="1" gridSize="10" guides="1" tooltips="1" connect="1" arrows="1" fold="1" page="1" pageScale="1" pageWidth="850" pageHeight="1100" math="0" shadow="0">
      <root>
        <mxCell id="0" />
        <mxCell id="1" parent="0" />
        <mxCell id="LuRJmApKZH75SW7Aes_S-3" style="edgeStyle=orthogonalEdgeStyle;rounded=0;orthogonalLoop=1;jettySize=auto;html=1;entryX=0.5;entryY=0;entryDx=0;entryDy=0;" edge="1" parent="1" source="LuRJmApKZH75SW7Aes_S-1" target="LuRJmApKZH75SW7Aes_S-2">
          <mxGeometry relative="1" as="geometry" />
        </mxCell>
        <mxCell id="LuRJmApKZH75SW7Aes_S-1" value="Start" style="strokeWidth=2;html=1;shape=mxgraph.flowchart.start_1;whiteSpace=wrap;" vertex="1" parent="1">
          <mxGeometry x="375" y="300" width="100" height="60" as="geometry" />
        </mxCell>
        <mxCell id="LuRJmApKZH75SW7Aes_S-5" style="edgeStyle=orthogonalEdgeStyle;rounded=0;orthogonalLoop=1;jettySize=auto;html=1;entryX=0.5;entryY=0;entryDx=0;entryDy=0;" edge="1" parent="1" source="LuRJmApKZH75SW7Aes_S-2" target="LuRJmApKZH75SW7Aes_S-4">
          <mxGeometry relative="1" as="geometry" />
        </mxCell>
        <mxCell id="LuRJmApKZH75SW7Aes_S-2" value="On &quot;Convert&quot; Button Click" style="rounded=1;whiteSpace=wrap;html=1;absoluteArcSize=1;arcSize=14;strokeWidth=2;" vertex="1" parent="1">
          <mxGeometry x="375" y="400" width="100" height="100" as="geometry" />
        </mxCell>
        <mxCell id="LuRJmApKZH75SW7Aes_S-4" value="Convert Earth weight to Mars weight" style="rounded=1;whiteSpace=wrap;html=1;absoluteArcSize=1;arcSize=14;strokeWidth=2;" vertex="1" parent="1">
          <mxGeometry x="375" y="540" width="100" height="100" as="geometry" />
        </mxCell>
        <mxCell id="LuRJmApKZH75SW7Aes_S-6" value="End" style="strokeWidth=2;html=1;shape=mxgraph.flowchart.terminator;whiteSpace=wrap;" vertex="1" parent="1">
          <mxGeometry x="375" y="680" width="100" height="60" as="geometry" />
        </mxCell>
        <mxCell id="LuRJmApKZH75SW7Aes_S-7" style="edgeStyle=orthogonalEdgeStyle;rounded=0;orthogonalLoop=1;jettySize=auto;html=1;entryX=0.5;entryY=0;entryDx=0;entryDy=0;entryPerimeter=0;" edge="1" parent="1" source="LuRJmApKZH75SW7Aes_S-4" target="LuRJmApKZH75SW7Aes_S-6">
          <mxGeometry relative="1" as="geometry" />
        </mxCell>
      </root>
    </mxGraphModel>
  </diagram>
</mxfile>
